<svg width="28" height="45" viewBox="0 0 28 45" fill="none" xmlns="http://www.w3.org/2000/svg">
<path d="M9.01272 31.4063V30.8523C9.02692 28.2813 9.2684 26.2358 9.73715 24.7159C10.2201 23.196 10.9019 21.9744 11.7826 21.0512C12.6633 20.1137 13.7357 19.2543 14.9999 18.473C15.8664 17.9333 16.6406 17.3438 17.3224 16.7046C18.0184 16.0512 18.5653 15.3267 18.963 14.5313C19.3607 13.7216 19.5596 12.8196 19.5596 11.8253C19.5596 10.7031 19.2968 9.73013 18.7712 8.90627C18.2457 8.0824 17.5354 7.4432 16.6406 6.98865C15.7599 6.53411 14.7727 6.30683 13.6789 6.30683C12.6704 6.30683 11.7116 6.527 10.8025 6.96735C9.9076 7.39348 9.16187 8.04689 8.56527 8.92757C7.98289 9.79405 7.65618 10.8949 7.58516 12.2301H-6.65635e-05C0.0709562 9.53127 0.724365 7.27274 1.96016 5.45456C3.21016 3.63638 4.85789 2.27274 6.90334 1.36365C8.963 0.45456 11.2357 1.50204e-05 13.7215 1.50204e-05C16.4346 1.50204e-05 18.821 0.475868 20.8806 1.42757C22.9545 2.37928 24.5667 3.73581 25.7173 5.49717C26.882 7.24433 27.4644 9.3182 27.4644 11.7188C27.4644 13.3381 27.2016 14.7869 26.6761 16.0654C26.1647 17.3438 25.4332 18.4801 24.4815 19.4744C23.5298 20.4688 22.4005 21.3566 21.0937 22.1378C19.9431 22.848 18.9985 23.5867 18.2599 24.3537C17.5354 25.1208 16.9957 26.0227 16.6406 27.0597C16.2996 28.0824 16.1221 29.3466 16.1079 30.8523V31.4063H9.01272ZM12.7201 44.7017C11.4417 44.7017 10.3408 44.2472 9.41755 43.3381C8.49425 42.429 8.0326 41.321 8.0326 40.0142C8.0326 38.7358 8.49425 37.6421 9.41755 36.733C10.3408 35.8239 11.4417 35.3693 12.7201 35.3693C13.9843 35.3693 15.0781 35.8239 16.0014 36.733C16.9389 37.6421 17.4076 38.7358 17.4076 40.0142C17.4076 40.8807 17.1874 41.6691 16.7471 42.3793C16.321 43.0895 15.7528 43.6577 15.0425 44.0838C14.3465 44.4958 13.5724 44.7017 12.7201 44.7017Z" fill="#243E4D"/>
</svg>
